<svg width="9" height="9" viewBox="0 0 9 9" fill="none" xmlns="http://www.w3.org/2000/svg">
<path fill-rule="evenodd" clip-rule="evenodd" d="M8.78164 1.03157C9.00619 0.807023 9.00619 0.442953 8.78164 0.218401C8.55708 -0.00615007 8.19301 -0.00615007 7.96846 0.218401L4.50005 3.68682L1.03164 0.218402C0.807084 -0.00614996 0.443014 -0.00614996 0.218463 0.218402C-0.00608892 0.442953 -0.00608892 0.807023 0.218463 1.03157L3.68688 4.49999L0.218462 7.9684C-0.00608904 8.19295 -0.00608904 8.55702 0.218462 8.78157C0.443014 9.00613 0.807084 9.00613 1.03164 8.78157L4.50005 5.31316L7.96846 8.78157C8.19301 9.00613 8.55708 9.00613 8.78164 8.78157C9.00619 8.55702 9.00619 8.19295 8.78164 7.9684L5.31322 4.49999L8.78164 1.03157Z" fill="black"/>
</svg>
