<?xml version="1.0" encoding="UTF-8"?>
<svg id="Camada_1" data-name="Camada 1" xmlns="http://www.w3.org/2000/svg" viewBox="0 0 2298.37 3000.49" fill="black" height="36">
  <defs>
    <style>
      .cls-1 {
        stroke-width: 0px;
      }
    </style>
  </defs>
  <path class="cls-1" d="m1698.91,3000.49c-1.97-1.1-3.81-2.62-5.92-3.22-16.66-4.77-28.51-15.56-37.12-30.07-11.21-18.91-22.03-38.05-33-57.1C1129.63,2053.34,636.39,1196.57,143.13,339.82c-2.79-4.85-5.71-9.62-9.61-16.17-.69,4.09-1.25,6.16-1.35,8.26-.17,3.66-.05,7.33-.05,11,0,859.16,0,1718.33-.06,2577.49,0,8.97.16,18.18-1.7,26.86-5.23,24.48-20.8,40.3-44,48.95-3.69,1.37-7.33,2.85-11,4.29h-23.99c-2.75-1.08-5.42-2.5-8.27-3.18-25.38-6.07-37.75-23.43-41.39-48.04-1.22-8.21-1.65-16.6-1.65-24.9C-.02,1976.13-.03,1027.89.13,79.65c0-10.9,1-22.08,3.56-32.64C9.19,24.23,24.59,10.55,47.02,4.62c6.06-1.6,12.17-3.68,18.36-4.07,17.4-1.1,32.04,5.62,43.5,18.45,5.49,6.15,10.14,13.22,14.27,20.39,173.5,301.03,346.9,602.11,520.31,903.19,314.56,546.16,629.12,1092.31,943.69,1638.47,59.85,103.92,119.71,207.84,179.59,311.74,5.86,10.16,10.64,20.68,12.86,32.31,2.68,14.06.6,27.33-6.89,39.4-9.4,15.15-21.77,26.77-39.82,31.12-4.77,1.15-9.33,3.22-13.98,4.86h-19.99Z"/>
  <path class="cls-1" d="m2210.77,3000.49c-2.99-1.31-5.91-2.86-8.99-3.88-27.83-9.25-46.12-33.49-47.29-62.9-.16-3.99-.12-8-.12-12,0-866.88-.01-1733.77.1-2600.65,0-10.26.72-20.7,2.78-30.71,1.5-7.31,5.09-14.45,8.89-21,24.96-43,87.49-37.41,108.9.95,7.18,12.87,10.62,26.48,11.2,41,.11,2.66.03,5.33.03,8,0,868.22.01,1736.43-.13,2604.65,0,10.9-1.01,22.03-3.31,32.67-4.55,21.11-18.2,34.17-38.99,39.91-3.77,1.04-7.38,2.62-11.07,3.95h-21.99Z"/>
  <path class="cls-1" d="m1758.71,1856.33c0-4.3,0-8.6,0-12.9,0-587.59,0-1175.19.09-1762.78,0-9.27.78-18.63,2.19-27.8,1.54-9.99,6.41-18.79,12.05-27.18,21.59-32.14,65.72-31.59,89.23-12.16,17.4,14.39,26.92,32.69,28.18,55.24.2,3.66.1,7.33.1,11,0,673.25.02,1346.49-.16,2019.74,0,11.2-1.16,22.74-3.99,33.54-5.41,20.69-19.95,33.26-40.13,39.45-2.5.77-5.29,1.41-7.82,1.1-12.19-1.53-24.58-2.42-36.43-5.38-17.15-4.29-29.95-14.72-39.06-30.37-51.3-88.08-102.95-175.97-154.49-263.91-302.87-516.72-605.75-1033.45-908.63-1550.16-7.43-12.67-14.62-25.35-17.29-40.13-2.35-13.01-.9-25.49,5.69-36.75,14.58-24.92,35.78-39,65.6-37.45,5.64.29,11.34.88,16.84,2.11,16.51,3.7,28.43,13.29,37.03,28.01,50.89,87.17,102.05,174.17,153.11,261.24,263.54,449.43,527.08,898.86,790.63,1348.28,1.61,2.75,3.45,5.38,5.18,8.06l2.11-.8Z"/>
  <path class="cls-1" d="m527.66,2115.51c0,183.97,0,367.93-.01,551.9,0,5.66-.03,11.33-.3,16.99-1.62,32.93-20.8,52.32-53.75,56.03-48.12,5.42-78.14-32.44-78.09-72.83.43-369.6.24-739.2.31-1108.8,0-9.97.29-20.02,1.48-29.9,3.73-31.08,23.26-48.25,54.53-50.63,46.26-3.51,75.59,35.91,75.68,69.34.01,4.33.15,8.66.15,12.99,0,184.97,0,369.93,0,554.9Z"/>
  <circle class="cls-1" cx="2219.37" cy="79.24" r="79"/>
</svg>