<svg width="11" height="7" viewBox="0 0 11 7" fill="none" xmlns="http://www.w3.org/2000/svg">
<path fill-rule="evenodd" clip-rule="evenodd" d="M0.5 0C0.223858 0 0 0.223858 0 0.5C0 0.776142 0.223858 1 0.5 1H10.5C10.7761 1 11 0.776142 11 0.5C11 0.223858 10.7761 0 10.5 0H0.5ZM0 3.5C0 3.22386 0.223858 3 0.5 3H10.5C10.7761 3 11 3.22386 11 3.5C11 3.77614 10.7761 4 10.5 4H0.5C0.223858 4 0 3.77614 0 3.5ZM0 6.5C0 6.22386 0.223858 6 0.5 6H10.5C10.7761 6 11 6.22386 11 6.5C11 6.77614 10.7761 7 10.5 7H0.5C0.223858 7 0 6.77614 0 6.5Z" fill="black"/>
</svg>
